<svg xmlns="http://www.w3.org/2000/svg" width="44" height="44" viewBox="0 0 44 44">
  <circle cx="22" cy="22" r="18" fill="#40210B" />
  <circle cx="22" cy="22" r="18" fill="none" stroke="#FFB347" stroke-width="2.5" />
  <circle cx="22" cy="22" r="13" fill="rgba(255,255,255,0.05)" />
  <path d="M14 24.4l1.9-5.8c0.6-1.9 2.4-3.1 4.4-3.1h4.4c2 0 3.8 1.2 4.4 3.1l1.9 5.8v3.4h-2.8c-0.4 1.7-1.9 3-3.7 3s-3.3-1.3-3.7-3h-4.6c-0.4 1.7-1.9 3-3.7 3s-3.3-1.3-3.7-3H12v-3.4h2z" fill="#FFF4DB" />
  <path d="M18.2 18.1h7.6c1.1 0 2.1 0.7 2.4 1.8l0.7 2.2H15.1l0.7-2.2c0.3-1.1 1.3-1.8 2.4-1.8z" fill="#1F2937" />
  <circle cx="17.2" cy="28.2" r="2" fill="#1F2937" />
  <circle cx="26.8" cy="28.2" r="2" fill="#1F2937" />
  <path d="M30.4 13.6c2 0.8 3.5 2.4 4.1 4.4" stroke="#FDBA74" stroke-width="2" stroke-linecap="round" fill="none" />
  <path d="M29 16.8c1.2 0.5 2 1.3 2.4 2.4" stroke="#FDBA74" stroke-width="1.8" stroke-linecap="round" fill="none" />
</svg>
